<?xml version="1.0" ?><svg data-name="1-Online Shopping" height="64" id="_1-Online_Shopping" viewBox="0 0 64 64" width="64" xmlns="http://www.w3.org/2000/svg"><defs><style>.cls-1{fill:none;stroke:#000;stroke-linejoin:round;stroke-width:2px;}</style></defs><title/><rect class="cls-1" height="62" rx="2" ry="2" width="62" x="1" y="1"/><line class="cls-1" x1="1" x2="63" y1="9" y2="9"/><line class="cls-1" x1="4" x2="6" y1="5" y2="5"/><line class="cls-1" x1="8" x2="10" y1="5" y2="5"/><line class="cls-1" x1="58" x2="60" y1="5" y2="5"/><path class="cls-1" d="M5,29V58a1,1,0,0,0,1,1H34a1,1,0,0,0,1-1V29Z"/><path class="cls-1" d="M29,35V24a2,2,0,0,0-2-2H13a2,2,0,0,0-2,2V35"/><line class="cls-1" x1="5" x2="35" y1="35" y2="35"/><rect class="cls-1" height="4" width="4" x="9" y="51"/><line class="cls-1" x1="16" x2="18" y1="51" y2="51"/><line class="cls-1" x1="20" x2="22" y1="51" y2="51"/><line class="cls-1" x1="16" x2="26" y1="55" y2="55"/><polyline class="cls-1" points="5 26 5 13 59 13 59 25 32 25"/><rect class="cls-1" height="22" width="20" x="39" y="29"/><line class="cls-1" x1="38" x2="40" y1="55" y2="55"/><line class="cls-1" x1="42" x2="44" y1="55" y2="55"/><line class="cls-1" x1="47" x2="60" y1="55" y2="55"/><line class="cls-1" x1="38" x2="60" y1="59" y2="59"/><polyline class="cls-1" points="52 17 55 17 55 20"/><circle class="cls-1" cx="49" cy="40" r="6"/><polyline class="cls-1" points="43 40 47 40 49 38 54 43"/></svg>