<?xml version="1.0" ?><svg height="64" viewBox="0 0 64 64" width="64" xmlns="http://www.w3.org/2000/svg"><defs><style>.cls-1{fill:none;stroke:#000;stroke-linejoin:round;stroke-width:2px;}</style></defs><title/><g data-name="18-Shopping Bag" id="_18-Shopping_Bag"><path class="cls-1" d="M15,63H5a4,4,0,0,1-4-4V13H47V29"/><path class="cls-1" d="M36,17V5a4,4,0,0,0-4-4H16a4,4,0,0,0-4,4V23"/><line class="cls-1" x1="1" x2="26" y1="19" y2="19"/><circle class="cls-1" cx="12" cy="25" r="2"/><path class="cls-1" d="M63,59a4,4,0,0,1-4,4H21a4,4,0,0,1-4-4V29H63Z"/><path class="cls-1" d="M52,39V24a4,4,0,0,0-4-4H32a4,4,0,0,0-4,4V39"/><line class="cls-1" x1="17" x2="63" y1="35" y2="35"/><circle class="cls-1" cx="28" cy="41" r="2"/><circle class="cls-1" cx="52" cy="41" r="2"/><path class="cls-1" d="M5,54v4a.979.979,0,0,0,1,1H9"/><line class="cls-1" x1="39" x2="41" y1="41" y2="41"/><line class="cls-1" x1="43" x2="45" y1="41" y2="41"/><line class="cls-1" x1="35" x2="37" y1="41" y2="41"/></g></svg>