<?xml version="1.0" ?><svg height="64" viewBox="0 0 64 64" width="64" xmlns="http://www.w3.org/2000/svg"><defs><style>.cls-1{fill:none;stroke:#000;stroke-linejoin:round;stroke-width:2px;}</style></defs><title/><g data-name="6-Planning" id="_6-Planning"><rect class="cls-1" height="62" rx="2" ry="2" width="62" x="1" y="1"/><line class="cls-1" x1="1" x2="63" y1="9" y2="9"/><line class="cls-1" x1="4" x2="6" y1="5" y2="5"/><line class="cls-1" x1="8" x2="10" y1="5" y2="5"/><line class="cls-1" x1="58" x2="60" y1="5" y2="5"/><rect class="cls-1" height="10" rx="1" ry="1" width="18" x="23" y="13"/><rect class="cls-1" height="10" rx="1" ry="1" width="18" x="23" y="28"/><rect class="cls-1" height="10" rx="1" ry="1" width="10" x="27" y="49"/><rect class="cls-1" height="10" rx="1" ry="1" width="10" x="43" y="49"/><rect class="cls-1" height="10" rx="1" ry="1" width="10" x="11" y="49"/><polyline class="cls-1" points="16 49 16 42 48 42 48 49"/><line class="cls-1" x1="32" x2="32" y1="23" y2="28"/><line class="cls-1" x1="32" x2="32" y1="38" y2="49"/><line class="cls-1" x1="12" x2="20" y1="58" y2="50"/><line class="cls-1" x1="28" x2="36" y1="58" y2="50"/><line class="cls-1" x1="44" x2="52" y1="58" y2="50"/><line class="cls-1" x1="26" x2="34" y1="18" y2="18"/><line class="cls-1" x1="36" x2="38" y1="18" y2="18"/><line class="cls-1" x1="26" x2="34" y1="33" y2="33"/><line class="cls-1" x1="36" x2="38" y1="33" y2="33"/><polyline class="cls-1" points="9 13 5 13 5 17"/><polyline class="cls-1" points="59 17 59 13 55 13"/></g></svg>