<?xml version="1.0" ?><svg height="64" viewBox="0 0 64 64" width="64" xmlns="http://www.w3.org/2000/svg"><defs><style>.cls-1{fill:none;stroke:#000;stroke-linejoin:round;stroke-width:2px;}</style></defs><title/><g data-name="12-Email Marketing" id="_12-Email_Marketing"><path class="cls-1" d="M1,14V3A2,2,0,0,1,3,1H61a2,2,0,0,1,2,2v8"/><path class="cls-1" d="M1,40V61a2,2,0,0,0,2,2H61a2,2,0,0,0,2-2V33"/><line class="cls-1" x1="1" x2="63" y1="9" y2="9"/><line class="cls-1" x1="4" x2="6" y1="5" y2="5"/><line class="cls-1" x1="8" x2="10" y1="5" y2="5"/><line class="cls-1" x1="58" x2="60" y1="5" y2="5"/><path class="cls-1" d="M33,31V19a2,2,0,0,0-2-2H3a2,2,0,0,0-2,2V35a2,2,0,0,0,2,2H5a.979.979,0,0,1,1,1V55"/><rect class="cls-1" height="24" rx="2" ry="2" width="38" x="10" y="34"/><path class="cls-1" d="M57,53V31a.979.979,0,0,1,1-1h3a2,2,0,0,0,2-2V16a2,2,0,0,0-2-2H39a2,2,0,0,0-2,2V28a2,2,0,0,0,2,2H51a.979.979,0,0,1,1,1V47"/><polyline class="cls-1" points="11 35 29 47 47 35"/><polyline class="cls-1" points="2 18 17 27 32 18"/><polyline class="cls-1" points="38 15 50 22 62 15"/><line class="cls-1" x1="11" x2="24" y1="57" y2="44"/><line class="cls-1" x1="47" x2="34" y1="57" y2="44"/><line class="cls-1" x1="38" x2="47" y1="29" y2="20"/><line class="cls-1" x1="62" x2="53" y1="29" y2="20"/><line class="cls-1" x1="2" x2="13" y1="36" y2="25"/><line class="cls-1" x1="22" x2="29" y1="24" y2="31"/><line class="cls-1" x1="52" x2="52" y1="49" y2="51"/><line class="cls-1" x1="52" x2="52" y1="53" y2="55"/><line class="cls-1" x1="57" x2="57" y1="55" y2="57"/><line class="cls-1" x1="6" x2="6" y1="57" y2="59"/></g></svg>