<?xml version="1.0" ?><svg height="64" viewBox="0 0 64 64" width="64" xmlns="http://www.w3.org/2000/svg"><defs><style>.cls-1{fill:none;stroke:#000;stroke-linejoin:round;stroke-width:2px;}</style></defs><title/><g data-name="23-Online Store" id="_23-Online_Store"><path class="cls-1" d="M42,19H22v6h4v9a1,1,0,0,0,1,1H37a1,1,0,0,0,1-1V25h4Z"/><line class="cls-1" x1="26" x2="38" y1="27" y2="27"/><line class="cls-1" x1="26" x2="38" y1="31" y2="31"/><path class="cls-1" d="M35,19a3,3,0,0,1-6,0"/><path class="cls-1" d="M41,35h9a1,1,0,0,0,1-1V25h4V19H45"/><line class="cls-1" x1="44" x2="51" y1="27" y2="27"/><line class="cls-1" x1="41" x2="51" y1="31" y2="31"/><path class="cls-1" d="M48,19a3,3,0,0,1-3,3"/><line class="cls-1" x1="1" x2="63" y1="14" y2="14"/><line class="cls-1" x1="1" x2="63" y1="43" y2="43"/><path class="cls-1" d="M23,35H14a1,1,0,0,1-1-1V25H9V19H19"/><line class="cls-1" x1="20" x2="13" y1="27" y2="27"/><line class="cls-1" x1="23" x2="13" y1="31" y2="31"/><path class="cls-1" d="M16,19a3,3,0,0,0,3,3"/><line class="cls-1" x1="31" x2="33" y1="39" y2="39"/><line class="cls-1" x1="35" x2="37" y1="39" y2="39"/><line class="cls-1" x1="27" x2="29" y1="39" y2="39"/><rect class="cls-1" height="10" rx="1" ry="1" width="10" x="6" y="48"/><rect class="cls-1" height="10" rx="1" ry="1" width="10" x="21" y="48"/><rect class="cls-1" height="10" rx="1" ry="1" width="10" x="36" y="48"/><line class="cls-1" x1="6" x2="16" y1="58" y2="48"/><line class="cls-1" x1="21" x2="31" y1="58" y2="48"/><line class="cls-1" x1="36" x2="46" y1="58" y2="48"/><line class="cls-1" x1="49" x2="51" y1="49" y2="49"/><line class="cls-1" x1="49" x2="51" y1="57" y2="57"/><line class="cls-1" x1="53" x2="55" y1="49" y2="49"/><line class="cls-1" x1="49" x2="59" y1="53" y2="53"/><line class="cls-1" x1="53" x2="59" y1="57" y2="57"/><rect class="cls-1" height="62" rx="2" ry="2" width="62" x="1" y="1"/><line class="cls-1" x1="1" x2="63" y1="9" y2="9"/><line class="cls-1" x1="4" x2="6" y1="5" y2="5"/><line class="cls-1" x1="8" x2="10" y1="5" y2="5"/><line class="cls-1" x1="58" x2="60" y1="5" y2="5"/></g></svg>