<?xml version="1.0" ?><svg height="64" viewBox="0 0 64 64" width="64" xmlns="http://www.w3.org/2000/svg"><defs><style>.cls-1{fill:none;stroke:#000;stroke-linejoin:round;stroke-width:2px;}</style></defs><title/><g data-name="10-Price Tag" id="_10-Price_Tag"><path class="cls-1" d="M63,21V15c0-1.552-.448-2-1-2H2a1,1,0,0,0-1,1v7Z"/><path class="cls-1" d="M59,21V57a2,2,0,0,1-2,2H37"/><line class="cls-1" x1="5" x2="5" y1="21" y2="43"/><line class="cls-1" x1="22" x2="22" y1="21" y2="13"/><line class="cls-1" x1="42" x2="42" y1="21" y2="13"/><line class="cls-1" x1="40" x2="40" y1="45" y2="21"/><line class="cls-1" x1="24" x2="24" y1="43" y2="21"/><line class="cls-1" x1="5" x2="21" y1="26" y2="26"/><line class="cls-1" x1="59" x2="43" y1="26" y2="26"/><path class="cls-1" d="M32,13V6s0-5-5-5H15S15,13,32,13Z"/><path class="cls-1" d="M32,13V6s0-5,5-5H49S49,13,32,13Z"/><path class="cls-1" d="M29,63H3a2,2,0,0,1-2-2V45a2,2,0,0,1,2-2H29L39,53Z"/><path class="cls-1" d="M39,53h5a1.959,1.959,0,0,0,2-2V46a1.959,1.959,0,0,1,2-2h3a1.959,1.959,0,0,1,2,2v6"/><line class="cls-1" x1="53" x2="53" y1="54" y2="56"/><circle class="cls-1" cx="31" cy="53" r="2"/><rect class="cls-1" height="4" width="20" x="5" y="47"/><line class="cls-1" x1="4" x2="6" y1="55" y2="55"/><line class="cls-1" x1="8" x2="10" y1="55" y2="55"/><line class="cls-1" x1="4" x2="26" y1="59" y2="59"/><line class="cls-1" x1="26" x2="24" y1="55" y2="55"/><polyline class="cls-1" points="13 30 9 30 9 34"/></g></svg>