<?xml version="1.0" ?><svg height="64" viewBox="0 0 64 64" width="64" xmlns="http://www.w3.org/2000/svg"><defs><style>.cls-1{fill:none;stroke:#000;stroke-linejoin:round;stroke-width:2px;}</style></defs><title/><g data-name="7-Online Shopping" id="_7-Online_Shopping"><rect class="cls-1" height="62" rx="2" ry="2" width="62" x="1" y="1"/><line class="cls-1" x1="1" x2="63" y1="9" y2="9"/><line class="cls-1" x1="4" x2="6" y1="5" y2="5"/><line class="cls-1" x1="8" x2="10" y1="5" y2="5"/><line class="cls-1" x1="58" x2="60" y1="5" y2="5"/><rect class="cls-1" height="6" width="40" x="12" y="26"/><path class="cls-1" d="M15,32V52a2,2,0,0,0,2,2H47a2,2,0,0,0,2-2V32"/><line class="cls-1" x1="26" x2="26" y1="26" y2="32"/><line class="cls-1" x1="38" x2="38" y1="26" y2="32"/><line class="cls-1" x1="36" x2="36" y1="32" y2="54"/><line class="cls-1" x1="28" x2="28" y1="32" y2="54"/><line class="cls-1" x1="15" x2="24" y1="36" y2="36"/><line class="cls-1" x1="40" x2="49" y1="36" y2="36"/><path class="cls-1" d="M32,26V21a2.938,2.938,0,0,0-3-3H22S23,26,32,26Z"/><path class="cls-1" d="M32,26V21a2.938,2.938,0,0,1,3-3h7S41,26,32,26Z"/><rect class="cls-1" height="46" width="54" x="5" y="13"/><polyline class="cls-1" points="12 17 9 17 9 20"/><polyline class="cls-1" points="52 55 55 55 55 52"/></g></svg>